<?xml version="1.0" standalone="no"?>
<!DOCTYPE svg PUBLIC "-//W3C//DTD SVG 20010904//EN"
 "http://www.w3.org/TR/2001/REC-SVG-20010904/DTD/svg10.dtd">
<svg version="1.0" xmlns="http://www.w3.org/2000/svg"
 width="516.000000pt" height="516.000000pt" viewBox="0 0 516.000000 516.000000"
 preserveAspectRatio="xMidYMid meet">
<metadata>
Created by potrace 1.14, written by Peter Selinger 2001-2017
</metadata>
<g transform="translate(0.000000,516.000000) scale(0.100000,-0.100000)"
fill="#000000" stroke="none">
<path d="M2327 5119 c-585 -62 -1130 -321 -1543 -735 -403 -402 -660 -933
-730 -1504 -22 -183 -15 -532 15 -706 62 -364 194 -701 391 -997 387 -582 982
-976 1666 -1102 368 -68 727 -55 1100 40 178 46 299 91 489 185 509 250 903
644 1155 1155 574 1163 189 2558 -901 3268 -328 214 -738 357 -1133 396 -124
12 -393 12 -509 0z m340 -1100 c32 -30 53 -78 53 -122 0 -33 2 -35 42 -41 118
-19 176 -108 132 -202 -11 -22 -31 -40 -60 -55 -45 -21 -46 -21 -128 -4 -102
22 -196 17 -226 -10 -20 -18 -20 -20 -4 -32 10 -7 74 -31 143 -54 150 -49 207
-77 263 -127 93 -83 116 -222 57 -340 -35 -72 -71 -104 -156 -145 -59 -27 -63
-31 -63 -63 0 -83 -57 -144 -135 -144 -78 0 -135 62 -135 147 l0 38 -102 35
c-88 30 -106 40 -125 69 -49 73 -20 165 61 196 46 18 46 18 143 -13 54 -17
116 -34 138 -37 47 -8 117 8 135 30 23 28 -16 51 -167 101 -267 87 -349 177
-330 361 10 99 85 190 193 234 50 21 54 25 54 55 0 60 37 124 85 145 34 15
104 3 132 -22z m340 -1691 c112 -62 124 -226 21 -300 -32 -22 -40 -23 -296
-28 l-264 -5 -24 -28 c-29 -34 -31 -66 -3 -101 l20 -26 343 0 343 0 332 244
c288 213 338 246 384 256 95 19 195 -28 236 -113 36 -74 23 -184 -27 -240 -42
-47 -764 -569 -832 -601 -152 -73 -117 -71 -1145 -71 -1029 0 -953 -5 -1012
72 l-28 36 0 237 0 237 28 36 c45 60 76 70 217 75 l125 5 143 114 c184 145
272 190 417 212 33 5 269 8 525 7 422 -1 468 -3 497 -18z"/>
</g>
</svg>
